<svg width="1024" height="1024" viewBox="0 0 1024 1024" fill="none" xmlns="http://www.w3.org/2000/svg">
<g clip-path="url(#clip0_12139_47269)">
<rect width="1024" height="1024" fill="#BBB4FD"/>
<path d="M1024 530.678C954.665 829.356 149.5 1040.5 41.5 917C0.5 876 7.54135 835.868 -11 785L-29.5 1028L1024 1023.99C1024 1023.99 1093.33 232 1024 530.678Z" fill="#6251FB"/>
<path d="M42.6674 906.678C-69.3325 804.011 -0.000133514 0 -0.000133514 0H1024V491.477C1024 537.479 989.745 576.282 944.098 581.988C912.808 585.899 881.077 579.984 853.298 565.061L706.627 486.271C676.59 470.135 639.258 479.093 619.051 506.557C385.634 823.803 149.338 1004.46 42.6674 906.678Z" fill="#F5F5FF"/>
<path d="M112 288C112 252.654 140.654 224 176 224H848C883.346 224 912 252.654 912 288C912 323.346 883.346 352 848 352H176C140.654 352 112 323.346 112 288Z" fill="#6251FB"/>
<path d="M112 477C112 441.654 140.654 413 176 413H352C387.346 413 416 441.654 416 477C416 512.346 387.346 541 352 541H176C140.654 541 112 512.346 112 477Z" fill="#6251FB"/>
</g>
<defs>
<clipPath id="clip0_12139_47269">
<rect width="1024" height="1024" fill="white"/>
</clipPath>
</defs>
</svg>
